<svg width="133" height="115" fill="none" xmlns="http://www.w3.org/2000/svg"><path d="M132.972 31.71c0-17.486-14.175-31.66-31.66-31.66-17.486 0-31.66 14.174-31.66 31.66s14.174 31.66 31.66 31.66a31.54 31.54 0 0010.254-1.73c-7.125 40.862-38.99 67.214-9.452 45.526 32.755-24.05 30.893-74.488 30.856-75.413l.002-.043zm-69.652 0C63.32 14.224 49.146.05 31.66.05S0 14.224 0 31.71s14.174 31.66 31.66 31.66c3.594 0 7.034-.626 10.254-1.73-7.125 40.862-38.99 67.214-9.451 45.526 32.754-24.05 30.892-74.488 30.855-75.413l.002-.043z" fill="#E6EDFE"/></svg>