<svg width="84" height="18" fill="none" xmlns="http://www.w3.org/2000/svg"><path fill-rule="evenodd" clip-rule="evenodd" d="M42.178 6.84l-3.63 7.261c-1.733 3.466-6.678 3.466-8.41 0l-3.631-7.26-3.63 7.26c-1.733 3.466-6.678 3.466-8.41 0l-3.631-7.26-5.5 10.998-4.672-2.336L6.63 3.57c1.732-3.465 6.677-3.465 8.41 0l3.63 7.26 3.63-7.26c1.733-3.465 6.678-3.465 8.41 0l3.631 7.26 3.63-7.26c1.733-3.465 6.678-3.465 8.41 0l3.631 7.26 3.631-7.26c1.733-3.465 6.677-3.465 8.41 0l3.63 7.26 3.631-7.26c1.733-3.465 6.678-3.465 8.41 0l5.967 11.933-4.672 2.336-5.5-10.999-3.63 7.261c-1.733 3.466-6.678 3.466-8.41 0l-3.631-7.26-3.63 7.26c-1.733 3.466-6.678 3.466-8.41 0l-3.631-7.26z" fill="#014DF5"/></svg>