<svg width="204" height="204" fill="none" xmlns="http://www.w3.org/2000/svg"><mask id="mask0_1394_12719" style="mask-type:alpha" maskUnits="userSpaceOnUse" x="29" y="29" width="145" height="145"><path fill-rule="evenodd" clip-rule="evenodd" d="M126.155 131.454c16.474-13.547 18.846-37.884 5.299-54.358-13.548-16.474-37.884-18.846-54.358-5.298-16.474 13.547-18.846 37.884-5.299 54.358 13.548 16.473 37.885 18.845 54.358 5.298zm21.331 25.938c30.798-25.328 35.233-70.828 9.905-101.626-25.327-30.799-70.827-35.234-101.625-9.906-30.799 25.328-35.234 70.827-9.906 101.626 25.328 30.798 70.827 35.233 101.626 9.906z" fill="url(#paint0_linear_1394_12719)"/></mask><g mask="url(#mask0_1394_12719)"><path fill-rule="evenodd" clip-rule="evenodd" d="M126.155 131.454c16.474-13.547 18.846-37.884 5.299-54.358-13.548-16.474-37.884-18.846-54.358-5.298-16.474 13.547-18.846 37.884-5.299 54.358 13.548 16.473 37.885 18.845 54.358 5.298zm21.331 25.938c30.798-25.328 35.233-70.828 9.905-101.626-25.327-30.799-70.827-35.234-101.625-9.906-30.799 25.328-35.234 70.827-9.906 101.626 25.328 30.798 70.827 35.233 101.626 9.906z" fill="url(#paint1_linear_1394_12719)"/><g filter="url(#filter0_f_1394_12719)"><circle cx="71.875" cy="91.092" r="23.675" transform="rotate(-39.433 71.875 91.092)" fill="#00FF75" fill-opacity=".7"/></g><g filter="url(#filter1_f_1394_12719)"><circle cx="26.193" cy="87.354" r="23.675" transform="rotate(-39.433 26.193 87.354)" fill="#fff" fill-opacity=".6"/></g><g filter="url(#filter2_f_1394_12719)"><circle cx="130.673" cy="114.478" r="23.675" transform="rotate(-39.433 130.673 114.478)" fill="#BDB7D7" fill-opacity=".7"/></g></g><g filter="url(#filter3_f_1394_12719)"><circle cx="101.625" cy="101.627" r="57.089" transform="rotate(-39.433 101.625 101.627)" stroke="#BDB7D7" stroke-opacity=".7" stroke-width="16.822"/></g><defs><filter id="filter0_f_1394_12719" x="-19.087" y=".129" width="181.925" height="181.925" filterUnits="userSpaceOnUse" color-interpolation-filters="sRGB"><feFlood flood-opacity="0" result="BackgroundImageFix"/><feBlend in="SourceGraphic" in2="BackgroundImageFix" result="shape"/><feGaussianBlur stdDeviation="33.643" result="effect1_foregroundBlur_1394_12719"/></filter><filter id="filter1_f_1394_12719" x="-64.77" y="-3.608" width="181.925" height="181.925" filterUnits="userSpaceOnUse" color-interpolation-filters="sRGB"><feFlood flood-opacity="0" result="BackgroundImageFix"/><feBlend in="SourceGraphic" in2="BackgroundImageFix" result="shape"/><feGaussianBlur stdDeviation="33.643" result="effect1_foregroundBlur_1394_12719"/></filter><filter id="filter2_f_1394_12719" x="39.711" y="23.516" width="181.925" height="181.925" filterUnits="userSpaceOnUse" color-interpolation-filters="sRGB"><feFlood flood-opacity="0" result="BackgroundImageFix"/><feBlend in="SourceGraphic" in2="BackgroundImageFix" result="shape"/><feGaussianBlur stdDeviation="33.643" result="effect1_foregroundBlur_1394_12719"/></filter><filter id="filter3_f_1394_12719" x="2.48" y="2.482" width="198.29" height="198.29" filterUnits="userSpaceOnUse" color-interpolation-filters="sRGB"><feFlood flood-opacity="0" result="BackgroundImageFix"/><feBlend in="SourceGraphic" in2="BackgroundImageFix" result="shape"/><feGaussianBlur stdDeviation="16.822" result="effect1_foregroundBlur_1394_12719"/></filter><linearGradient id="paint0_linear_1394_12719" x1="104.801" y1="29.883" x2="95.706" y2="172.147" gradientUnits="userSpaceOnUse"><stop stop-color="#DA50A1"/><stop offset=".512" stop-color="#4D39E7"/><stop offset="1" stop-color="#64D0CE"/></linearGradient><linearGradient id="paint1_linear_1394_12719" x1="104.801" y1="29.883" x2="95.706" y2="172.147" gradientUnits="userSpaceOnUse"><stop stop-color="#41C9F3"/><stop offset=".501" stop-color="#484FEE"/><stop offset="1" stop-color="#00FFF0"/></linearGradient></defs></svg>