<svg width="26" height="25" fill="none" xmlns="http://www.w3.org/2000/svg"><path d="M5.707.626a1 1 0 010 1.414L2.374 5.374A1 1 0 11.96 3.959L4.293.626a1 1 0 011.414 0z" fill="#B1BEDA"/><path fill-rule="evenodd" clip-rule="evenodd" d="M13 2C6.74 2 1.667 7.074 1.667 13.333c0 6.26 5.074 11.334 11.333 11.334 6.26 0 11.333-5.075 11.333-11.334C24.333 7.074 19.26 2 13 2zm1 4.667a1 1 0 10-2 0v6.666a1 1 0 00.47.848l4 2.5a1 1 0 101.06-1.696L14 12.78V6.667z" fill="#B1BEDA"/><path d="M20.293 2.04A1 1 0 0121.707.626L25.04 3.96a1 1 0 11-1.414 1.415L20.293 2.04z" fill="#B1BEDA"/></svg>