<svg width="48" height="48" fill="none" xmlns="http://www.w3.org/2000/svg"><path d="M18.517 20.963c0 1.051.297 2.035.812 2.87l7.33-5.478h-8.142v2.608zm10.966-6.853a.057.057 0 00-.057-.057H18.574a.057.057 0 00-.058.057v1.433h10.967V14.11zm0 6.853v-1.207l-8.078 6.037a5.448 5.448 0 002.595.654 5.49 5.49 0 005.483-5.483z" fill="#014DF5"/><path d="M15.704 20.963V14.11a2.873 2.873 0 012.87-2.87h10.852a2.873 2.873 0 012.87 2.87v.033l9.03-6.75A23.843 23.843 0 0024 0 23.843 23.843 0 007.03 7.03 23.843 23.843 0 000 24c0 4.25 1.097 8.33 3.158 11.92l13.913-10.4a8.25 8.25 0 01-1.367-4.557zM43.157 9.536l-10.861 8.118v3.31c0 4.094-2.983 7.506-6.89 8.176v4.466h3.609a1.407 1.407 0 010 2.812h-10.03a1.407 1.407 0 010-2.812h3.609V29.14a8.264 8.264 0 01-3.586-1.555L4.702 38.276a24.425 24.425 0 002.327 2.695A23.844 23.844 0 0024 48c6.41 0 12.438-2.497 16.97-7.03A23.845 23.845 0 0048 24c0-5.291-1.7-10.32-4.843-14.464z" fill="#014DF5"/></svg>