<svg width="21" height="18" fill="none" xmlns="http://www.w3.org/2000/svg"><path d="M9.173 11.845a.717.717 0 00.718-.717V6.824a.717.717 0 00-1.435 0v4.304a.717.717 0 00.717.717zm-4.303 0a.717.717 0 00.717-.717V6.824a.717.717 0 00-1.435 0v4.304a.717.717 0 00.717.717z" fill="#5A5A5A"/><path d="M20.043 15.305l-1.227-3.372L14.648.456a.717.717 0 00-.373-.402.717.717 0 00-.545 0L10.043 1.38v-.144A.717.717 0 009.325.52H.717A.717.717 0 000 1.237V17.02a.717.717 0 00.717.717h8.608a.717.717 0 00.718-.717V4.595l3.379 9.325 1.226 3.372a.719.719 0 00.918.43l4.046-1.47a.717.717 0 00.409-.374.716.716 0 00.022-.573zm-11.435-2.59h-2.87V1.955h2.87v10.76zM4.304 1.955v10.76h-2.87V1.955h2.87zM1.434 14.15h2.87v2.152h-2.87V14.15zm4.305 2.152V14.15h2.87v2.152h-2.87zm7.804-14.663l3.673 10.107-2.69.969-3.68-10.1 2.697-.976zm2.239 14.462l-.718-2.023 2.697-.983.718 2.023-2.697.983z" fill="#5A5A5A"/><path d="M16.648 11.587a.717.717 0 00.674-.961l-1.47-4.046a.719.719 0 10-1.349.488l1.47 4.06a.718.718 0 00.675.46z" fill="#5A5A5A"/></svg>