<svg width="50" height="50" fill="none" xmlns="http://www.w3.org/2000/svg"><path d="M20.536 26.995v2.835a.867.867 0 01-.044.216 7.353 7.353 0 011.574.877 29.188 29.188 0 00-1.53-3.928zM2.679 0c-.494 0-.893.4-.893.893V18.75c0 .493.4.893.893.893h13.008a8.67 8.67 0 00-.248-.262.893.893 0 01.804-1.507c1.53.367 2.998.959 4.355 1.756a.887.887 0 00.83-.88V.893c0-.493-.4-.893-.892-.893h-3.572v8.036a.893.893 0 01-1.352.765l-4.005-2.403-4.004 2.403a.893.893 0 01-1.353-.765V0H2.679zm8.035 16.964H5.357a.893.893 0 010-1.785h5.357a.893.893 0 110 1.785zm0-5.357a.893.893 0 010 1.786H5.357a.893.893 0 010-1.786h5.357z" fill="#5A5A5A"/><path d="M12.067 4.592l3.112 1.867V0H8.036v6.459l3.111-1.867a.893.893 0 01.92 0zM14.858 26.1l3.892 3.247v-5.612a31.748 31.748 0 00-1.585-2.306H9.821v7.915l3.892-3.244a.893.893 0 011.145 0zm10.136 10.612a.851.851 0 01-.047.15c.015.203.029.41.037.638h1.218a13.565 13.565 0 013.23-4.822 32.807 32.807 0 01.893-11.2c-1.833 2.176-4.318 6.617-5.331 15.233zm-3.764.788h1.964a16.014 16.014 0 00-.052-.81 22.528 22.528 0 00-.252-2.2 6.143 6.143 0 00-5.48-3.24c-.448 0-.896.038-1.339.111A10.411 10.411 0 0121.23 37.5zm5.556-13.894v-1.284c0-.494-.4-.893-.893-.893h-2.768a13.988 13.988 0 012.968 3.625c.227-.517.458-1 .693-1.448zm-1.579 3.715a12.273 12.273 0 00-5.268-6.02 14.648 14.648 0 00-1.071-.585 32.865 32.865 0 015.199 10.729 37.386 37.386 0 011.14-4.124zm1.581 11.965h-7.145v1.785h12.5v-1.785h-5.355z" fill="#5A5A5A"/><path d="M17.857 41.072v-1.786a1.786 1.786 0 011.497-1.756 8.956 8.956 0 00-6.206-5.422.893.893 0 01-.154-1.657 11.137 11.137 0 013.22-.893l-1.928-1.611-4.784 3.987a.893.893 0 01-1.466-.684v-9.82H.893c-.493 0-.893.4-.893.893v26.785C0 49.6.4 50 .893 50h19.446l-1.464-7.321a1.786 1.786 0 01-1.018-1.607zM3.571 35.714h7.143a.893.893 0 010 1.786H3.571a.893.893 0 110-1.786zm7.143 8.929H3.571a.893.893 0 110-1.786h7.143a.893.893 0 110 1.786zm2.679-3.571H3.57a.893.893 0 010-1.786h9.822a.893.893 0 110 1.786zM22.16 50h7.466l1.428-7.143H20.732L22.16 50zm5.997-12.5h2.988a6.104 6.104 0 012.08-4.798 4.4 4.4 0 00-.956.256c-1.564.614-2.97 2.173-4.112 4.542zm20.057-16.8v-6.414h.57a.893.893 0 00.881-1.04L47.583.746A.893.893 0 0046.702 0h-9.475a.893.893 0 00-.881.746l-2.083 12.5a.893.893 0 00.88 1.04h5.928v33.928H37.5c-.493 0-.893.4-.893.893V50h10.715v-.893c0-.493-.4-.893-.893-.893h-3.572V14.286h3.572V20.7a2.679 2.679 0 101.785 0z" fill="#5A5A5A"/></svg>