<svg width="17" height="22" fill="none" xmlns="http://www.w3.org/2000/svg"><path d="M15.72 4.652a3.285 3.285 0 00-1.754-2.175c-.7-.33-1.495-.4-2.241-.196a2.827 2.827 0 00-.58-.486 3.67 3.67 0 00-3.17-.225 4.22 4.22 0 00-4.01-.566 4.228 4.228 0 00-2.64 3.684A1.204 1.204 0 00.6 5.791v1.218a1.204 1.204 0 00.725 1.117l.595 10.726a2.553 2.553 0 002.589 2.414h8.137a2.552 2.552 0 002.552-2.414l.631-10.726a1.204 1.204 0 00.726-1.117V5.791a1.19 1.19 0 00-.835-1.139zm-4.967 1.385h4.351v.725h-4.351v-.725zM4.487 2.361a2.8 2.8 0 012.901.587.725.725 0 00.812.116 2.502 2.502 0 012.176-.044c.205.132.379.308.508.515a.725.725 0 00.913.261 1.944 1.944 0 011.56 0c.338.176.614.452.79.79h-4.12a.725.725 0 00-.724.726v1.45a.363.363 0 01-.726 0 .725.725 0 00-1.45 0v3.264a.362.362 0 01-.725 0V5.312a.725.725 0 00-.725-.725H2.776A2.77 2.77 0 014.487 2.36zM2.051 6.762v-.725h2.9v.725h-2.9zm10.595 13.054H4.509a1.102 1.102 0 01-1.102-1.044l-.588-10.56h2.132v1.814a1.813 1.813 0 003.626 0V8.539a1.813 1.813 0 001.45-.326h4.352l-.588 10.559a1.102 1.102 0 01-1.145 1.044z" fill="#000"/></svg>