<svg width="19" height="18" fill="none" xmlns="http://www.w3.org/2000/svg"><path fill-rule="evenodd" clip-rule="evenodd" d="M1.477 7.48a18.716 18.716 0 009.693 9.417l.758.338a3.75 3.75 0 004.566-1.23l1.274-1.763a1.75 1.75 0 00-.32-2.387l-2.225-1.795a1.75 1.75 0 00-2.504.32l-.497.67a11.892 11.892 0 01-5.117-5.118l.67-.496c.798-.592.944-1.73.32-2.505L6.298.706a1.75 1.75 0 00-2.386-.32L2.14 1.666A3.75 3.75 0 00.92 6.258l.555 1.22.002.003zm10.285 8.039A17.216 17.216 0 012.84 6.856v-.001l-.554-1.217a2.25 2.25 0 01.732-2.756l1.773-1.28a.25.25 0 01.34.046l1.796 2.225a.25.25 0 01-.046.358l-1.168.866a.75.75 0 00-.237.911 13.388 13.388 0 006.67 6.67.75.75 0 00.912-.236l.866-1.169a.25.25 0 01.358-.046l2.224 1.795a.25.25 0 01.046.341l-1.274 1.764a2.25 2.25 0 01-2.74.738l-.764-.34-.012-.006z" fill="#000"/><path d="M10.75 6a.75.75 0 00.75.75h3.828a.75.75 0 100-1.5h-2.017l3.159-3.16a.75.75 0 10-1.061-1.06L12.25 4.19V2.17a.75.75 0 00-1.5 0V6z" fill="#000"/></svg>