<svg width="17" height="17" fill="none" xmlns="http://www.w3.org/2000/svg"><path d="M10.566 16.152A18.466 18.466 0 011 6.86L.48 5.719a3.5 3.5 0 011.237-4.356L3.051.47a1 1 0 011.335.202l2.43 3.012a1 1 0 01-.183 1.432l-1.257.931a12.14 12.14 0 005.511 5.512l.932-1.258a1 1 0 011.431-.183l3.012 2.43a1 1 0 01.203 1.336l-.888 1.323a3.5 3.5 0 01-4.331 1.247l-.68-.302z" fill="#000"/><path d="M9.75 6a.75.75 0 00.75.75h3.828a.75.75 0 000-1.5h-2.017l3.159-3.16a.75.75 0 10-1.061-1.06L11.25 4.19V2.17a.75.75 0 00-1.5 0V6z" fill="#000"/></svg>