<svg width="18" height="15" fill="none" xmlns="http://www.w3.org/2000/svg"><path fill-rule="evenodd" clip-rule="evenodd" d="M5.002.553a50.577 50.577 0 018.099.04l1.623.138a2.666 2.666 0 012.409 2.252l.102.669a20.665 20.665 0 01-.096 6.835 2.343 2.343 0 01-2.305 1.923H5.858c-.207 0-.41.051-.592.149L1.355 14.66A.75.75 0 01.25 14V5.482A4.93 4.93 0 014.809.567l.193-.014zM5 5.5A1.25 1.25 0 105 8a1.25 1.25 0 000-2.5zm4 0A1.25 1.25 0 109 8a1.25 1.25 0 000-2.5zm2.75 1.25a1.25 1.25 0 112.5 0 1.25 1.25 0 01-2.5 0z" fill="#000"/></svg>