<svg width="18" height="15" fill="none" xmlns="http://www.w3.org/2000/svg"><path d="M5 5.5A1.25 1.25 0 105 8a1.25 1.25 0 000-2.5zm4 0A1.25 1.25 0 109 8a1.25 1.25 0 000-2.5zm2.75 1.25a1.25 1.25 0 112.5 0 1.25 1.25 0 01-2.5 0z" fill="#000"/><path fill-rule="evenodd" clip-rule="evenodd" d="M13.1.593a50.577 50.577 0 00-8.098-.04l-.193.014A4.93 4.93 0 00.25 5.483V14a.75.75 0 001.105.66l3.91-2.101a1.25 1.25 0 01.593-.15h8.976a2.343 2.343 0 002.305-1.922c.412-2.258.444-4.568.096-6.835l-.102-.669A2.666 2.666 0 0014.725.731L13.1.593zM5.116 2.048a49.077 49.077 0 017.858.04l1.624.138c.536.045.972.452 1.053.984l.103.669a19.165 19.165 0 01-.09 6.339.843.843 0 01-.829.692H5.858a2.75 2.75 0 00-1.302.327L1.75 12.745V5.483a3.43 3.43 0 013.171-3.42l.194-.015z" fill="#000"/></svg>