<svg width="18" height="22" fill="none" xmlns="http://www.w3.org/2000/svg"><path d="M14.467 13.94V2.207A1.526 1.526 0 0012.94.667H2.06A1.525 1.525 0 00.533 2.192v11.931a1.885 1.885 0 00.558 1.335l2.251 2.251a1.87 1.87 0 001.335.558h5.463a3.666 3.666 0 104.327-4.327zM2.3 14.6h1.9v1.9l-1.9-1.9zm2.632-1.467H2V2.193a.066.066 0 01.059-.06H12.94a.066.066 0 01.059.06v11.732a3.667 3.667 0 00-2.86 2.875H5.667v-2.933a.734.734 0 00-.734-.734zm8.8 6.6a2.2 2.2 0 110-4.4 2.2 2.2 0 010 4.4z" fill="#5A5A5A"/><path d="M5.666 5.067h3.667a.733.733 0 000-1.467H5.666a.733.733 0 000 1.467zM4.2 8h6.6a.733.733 0 100-1.467H4.2A.733.733 0 004.2 8zm7.333 2.2a.733.733 0 00-.733-.733H4.2a.733.733 0 000 1.466h6.6a.734.734 0 00.733-.733zm3.264 5.947a.733.733 0 00-.983.323l-.279.557a.735.735 0 10-1.041 1.041l.733.734a.737.737 0 00.506.198h.118a.732.732 0 00.535-.396l.733-1.467a.733.733 0 00-.322-.99z" fill="#5A5A5A"/></svg>