<svg width="20" height="20" fill="none" xmlns="http://www.w3.org/2000/svg"><path d="M12.159 16.098a5.224 5.224 0 001.925-.364 4.812 4.812 0 001.636-1.059 1.375 1.375 0 000-1.932l-1.554-1.581a1.334 1.334 0 00-.963-.406 1.292 1.292 0 00-.969.392c-.3.295-.68.495-1.093.578a1.154 1.154 0 01-1.031-.35l-1.485-1.48a1.19 1.19 0 01-.31-1.052c.091-.41.296-.787.592-1.086.259-.254.407-.6.412-.963 0-.363-.143-.711-.399-.969L7.367 4.253c-.254-.26-.6-.408-.963-.413a1.375 1.375 0 00-.955.399 4.888 4.888 0 00-1.1 1.636 5.28 5.28 0 001.134 5.713l2.901 2.95a5.294 5.294 0 003.774 1.56zM5.62 6.37a3.54 3.54 0 01.77-1.182l1.547 1.595a3.479 3.479 0 00-.97 1.78 2.51 2.51 0 00.688 2.296l1.479 1.506a2.524 2.524 0 002.289.688 3.39 3.39 0 001.78-.95l1.561 1.568a3.437 3.437 0 01-1.175.764 3.906 3.906 0 01-4.215-.901l-2.908-2.95A3.926 3.926 0 015.62 6.37z" fill="#5A5A5A"/><path d="M17.363 3.813h.887a.687.687 0 000-1.376H15.5a.688.688 0 00-.688.688v2.75a.688.688 0 101.376 0v-1.32A8.25 8.25 0 0110 18.25a8.118 8.118 0 01-2.537-.399.688.688 0 00-.426 1.306A9.625 9.625 0 0017.363 3.812zM4.5 13.438a.688.688 0 00-.688.687v1.32A8.25 8.25 0 0112.537 2.15a.687.687 0 00.426-1.306A9.625 9.625 0 002.637 16.188H1.75a.688.688 0 000 1.375H4.5a.688.688 0 00.687-.688v-2.75a.687.687 0 00-.687-.687z" fill="#5A5A5A"/></svg>