<svg width="48" height="50" fill="none" xmlns="http://www.w3.org/2000/svg"><path d="M6.353 38.235h35.294v2.941H6.353v-2.94zM.47 44.118h47.06V50H.47v-5.882zm43.109-14.706l-14.045-9.77a5.855 5.855 0 00.348-1.995h-2.94A2.944 2.944 0 0124 20.588a2.944 2.944 0 01-2.941-2.94A2.945 2.945 0 0124 14.705h1.47v-6.03a7.375 7.375 0 005.735-5.735h7.5V0H9.296v2.941h7.5a7.375 7.375 0 005.734 5.734v3.276c-3.283.848-5.213 4.335-4.094 7.598L4.417 29.412H.47v5.882h47.058v-5.882h-3.95zm-34.05 0l10.526-7.406a5.868 5.868 0 007.818.063l10.555 7.343h-28.9z" fill="#5A5A5A"/></svg>