<svg width="16" height="21" fill="none" xmlns="http://www.w3.org/2000/svg"><path d="M6 .25a.75.75 0 00-.75.75v.75H1a.75.75 0 000 1.5h14a.75.75 0 000-1.5h-4.25V1A.75.75 0 0010 .25H6zM9.06 13l1.47 1.47a.75.75 0 11-1.06 1.06L8 14.06l-1.47 1.47a.75.75 0 01-1.06-1.06L6.94 13l-1.47-1.47a.75.75 0 111.06-1.06L8 11.94l1.47-1.47a.75.75 0 111.06 1.06L9.06 13z" fill="#000"/><path fill-rule="evenodd" clip-rule="evenodd" d="M1.991 5.917a.75.75 0 01.746-.667h10.526a.75.75 0 01.746.667l.2 1.802c.363 3.265.363 6.56 0 9.826l-.02.177a2.853 2.853 0 01-2.44 2.51 27.04 27.04 0 01-7.498 0 2.853 2.853 0 01-2.44-2.51l-.02-.177a44.489 44.489 0 010-9.826l.2-1.802zm1.417.833l-.126 1.134a42.99 42.99 0 000 9.495l.02.177a1.353 1.353 0 001.157 1.191c2.35.329 4.733.329 7.082 0a1.353 1.353 0 001.157-1.19l.02-.178c.35-3.155.35-6.34 0-9.495l-.126-1.134H3.408z" fill="#000"/></svg>