<svg width="16" height="21" fill="none" xmlns="http://www.w3.org/2000/svg"><path d="M5.25 1A.75.75 0 016 .25h4a.75.75 0 01.75.75v.75H15a.75.75 0 010 1.5H1a.75.75 0 010-1.5h4.25V1z" fill="#000"/><path fill-rule="evenodd" clip-rule="evenodd" d="M2.24 5.945a.5.5 0 01.497-.445h10.526a.5.5 0 01.497.445l.2 1.801a44.213 44.213 0 010 9.771l-.02.177a2.603 2.603 0 01-2.226 2.29 26.788 26.788 0 01-7.428 0 2.603 2.603 0 01-2.227-2.29l-.02-.177a44.239 44.239 0 010-9.77l.2-1.802zm8.29 4.525a.75.75 0 010 1.06L9.06 13l1.47 1.47a.75.75 0 11-1.06 1.06L8 14.06l-1.47 1.47a.75.75 0 01-1.06-1.06L6.94 13l-1.47-1.47a.75.75 0 111.06-1.06L8 11.94l1.47-1.47a.75.75 0 011.06 0z" fill="#000"/></svg>