<svg width="16" height="20" fill="none" xmlns="http://www.w3.org/2000/svg"><path fill-rule="evenodd" clip-rule="evenodd" d="M10.25.5A.25.25 0 0010 .25H3A2.75 2.75 0 00.25 3v14A2.75 2.75 0 003 19.75h10A2.75 2.75 0 0015.75 17V7.147a.25.25 0 00-.25-.25H11a.75.75 0 01-.75-.75V.5zm-.219 10.664a.75.75 0 01.938 1.172L8.475 14.33a.747.747 0 01-.473.169h-.008a.747.747 0 01-.465-.166l-2.497-1.998a.75.75 0 01.937-1.172L7.25 12.19V8.75a.75.75 0 111.5 0v3.44l1.281-1.026z" fill="#000"/><path d="M11.75.824c0-.184.193-.302.336-.186.121.098.23.212.322.342l3.014 4.197c.068.096-.006.22-.124.22H12a.25.25 0 01-.25-.25V.824z" fill="#000"/></svg>