<svg width="16" height="20" fill="none" xmlns="http://www.w3.org/2000/svg"><path d="M10.031 11.164a.75.75 0 01.938 1.172L8.475 14.33a.747.747 0 01-.473.169h-.008a.747.747 0 01-.465-.166l-2.497-1.998a.75.75 0 01.937-1.172L7.25 12.19V8.75a.75.75 0 111.5 0v3.44l1.281-1.026z" fill="#000"/><path fill-rule="evenodd" clip-rule="evenodd" d="M3 .25A2.75 2.75 0 00.25 3v14A2.75 2.75 0 003 19.75h10A2.75 2.75 0 0015.75 17V6.198a1.75 1.75 0 00-.328-1.02L12.408.98a1.75 1.75 0 00-1.421-.73H3zM1.75 3c0-.69.56-1.25 1.25-1.25h7.25v4.397c0 .414.336.75.75.75h3.25V17c0 .69-.56 1.25-1.25 1.25H3c-.69 0-1.25-.56-1.25-1.25V3z" fill="#000"/></svg>