<svg width="23" height="17" fill="none" xmlns="http://www.w3.org/2000/svg"><path d="M22.868 8.114c-1.923-4.049-6.297-7.7-11.413-7.7-5.757 0-9.894 4.503-11.413 7.7a.899.899 0 000 .772c1.923 4.049 6.297 7.7 11.413 7.7 5.757 0 9.895-4.503 11.413-7.7a.898.898 0 000-.772zM11.455 14.79c-4.139 0-7.57-2.728-9.584-6.289 2.005-3.547 5.434-6.29 9.584-6.29 4.139 0 7.571 2.728 9.584 6.29-2.005 3.547-5.434 6.29-9.584 6.29zm0-10.781A4.497 4.497 0 006.963 8.5a4.497 4.497 0 004.492 4.492A4.497 4.497 0 0015.947 8.5a4.497 4.497 0 00-4.492-4.492zm0 7.187A2.698 2.698 0 018.76 8.5a2.698 2.698 0 012.695-2.695A2.698 2.698 0 0114.15 8.5a2.698 2.698 0 01-2.695 2.695z" fill="#BDBDBD"/></svg>