<svg width="44" height="50" fill="none" xmlns="http://www.w3.org/2000/svg"><path d="M37.039 8.779v-.247a2.217 2.217 0 00-2.218-2.216h-5.39l.037-.015c1.239-.408.43-.428.43-.428L25.956 1.9l-2.103.239s-.103 1.102-.795 1.67a1.198 1.198 0 00-.238.265c.033-.093-.255-.1-.255-.1L18.62 0l-2.104.24s-.103 1.102-.794 1.67c-.69.567-.295 1.259-.295 1.259l-.78.774.482.488s-1.022 1.005-1.2 1.884h-1.551c.46-1.121.398-3.239.398-3.239s-1.936.971-1.352-.196c.583-1.166 0-.607 0-.607H5.827L4.515 3.935s.71.85.626 1.74c-.026.277.034.48.124.64h-2.96A2.217 2.217 0 00.089 8.532v.246c0 1.225.992 3.51 2.216 3.51h1.411l1.885 36.31a1.48 1.48 0 001.477 1.403h23.154c.79 0 1.438-.62 1.476-1.41l1.715-36.303h1.397c1.226 0 2.219-2.285 2.219-3.51zM22.133 4.4c.444-.146.623-.242.673-.305-.311.49-.044.972-.044.972l-.258.256c-.523-.231-1.22-.643-.37-.923zm.146 1.743l.171.171h-.363c.067-.058.131-.116.192-.171zM11.52 33.148c-.876.51-1.256-.275-1.256-.275a6.434 6.434 0 01-.147-1.357c0-3.344 2.527-6.069 5.663-6.153l-2.213-1.457a.982.982 0 01-.288-1.306c.26-.446.813-.582 1.23-.306l3.816 2.513a.947.947 0 01.398.59.998.998 0 01-.111.716l-2.37 4.046a.88.88 0 01-.76.448.854.854 0 01-.47-.143c-.42-.277-.549-.86-.288-1.306l1.114-1.902c-2.177.05-3.933 1.94-3.933 4.26 0 .221.02.433.052.644 0 0 .2.654-.437.988zm11.503 4.746a6.474 6.474 0 01-1.062.858c-2.81 1.81-6.472 1.162-8.24-1.429l-.026 2.65c-.007.502-.427.927-.943.949-.515.022-.928-.368-.923-.87l.046-4.569a.955.955 0 01.28-.654c.177-.176.416-.284.663-.294l4.685-.198a.88.88 0 01.787.395.847.847 0 01.135.473c-.006.502-.427.927-.942.95l-2.203.093c1.221 1.803 3.761 2.255 5.713.999a4.88 4.88 0 00.513-.391s.44-.524 1.067-.17c.904.463.45 1.208.45 1.208zm5.631-5.213l-3.815 2.512a.951.951 0 01-.7.132.994.994 0 01-.613-.385l-2.78-3.776a.882.882 0 01-.112-.875.866.866 0 01.318-.376c.42-.276 1.007-.164 1.313.252l1.307 1.775c.814-2.02-.227-4.38-2.36-5.297a4.464 4.464 0 00-.611-.208s-.68-.073-.736-.79c-.121-1.007.75-1.046.75-1.046.439.087.875.217 1.304.402 3.072 1.322 4.577 4.72 3.416 7.634l2.213-1.458c.42-.276 1.008-.163 1.313.252.306.416.213.977-.207 1.252zm1.198-18.685H6.989l-.313-1.707h23.79l-.615 1.707zm14.061 31.298s-1.666 1.753-2.804 2.078c-1.138.324-.249 1.062-.249 1.062l-.9-.212-.544.405-.478-.644s-1.988-.082-3.528-.828.687-2.928.687-2.928l-.483-.488.78-.774s-.395-.692.296-1.26c.69-.567.794-1.67.794-1.67l2.104-.24 3.943 3.975s.809.02-.431.428c-1.24.406.813 1.096.813 1.096z" fill="#5A5A5A"/></svg>