<svg width="42" height="42" fill="none" xmlns="http://www.w3.org/2000/svg"><g clip-path="url(#clip0_137_718)" fill="#014DF5"><path d="M33.688 0H3.061A3.077 3.077 0 000 3.063v30.625a3.077 3.077 0 003.063 3.062H17.08a14.639 14.639 0 01-1.33-6.125c0-8.207 6.668-14.875 14.875-14.875 2.188 0 4.252.473 6.125 1.33V3.063A3.077 3.077 0 0033.687 0zm-8.226 15.645a1.4 1.4 0 01-.524.105c-.333 0-.648-.123-.893-.35l-5.67-5.285-5.67 5.285c-.385.35-.945.455-1.418.245a1.326 1.326 0 01-.787-1.207V2.624h15.75v11.813c0 .524-.315.997-.788 1.207z"/><path d="M30.625 19.25c-6.272 0-11.375 5.103-11.375 11.375S24.353 42 30.625 42 42 36.897 42 30.625 36.897 19.25 30.625 19.25zm-1.75 14.875a.875.875 0 010 1.75H24.5a.875.875 0 01-.875-.875v-2.188c0-1.688 1.251-3.062 2.79-3.062h.546c.572 0 1.039-.59 1.039-1.313 0-.722-.467-1.312-1.04-1.312H24.5a.875.875 0 010-1.75h2.46c1.539 0 2.79 1.374 2.79 3.063 0 1.688-1.251 3.062-2.79 3.062h-.546c-.572 0-1.039.59-1.039 1.313v1.312h3.5zm8.75-3.5V35a.875.875 0 01-1.75 0v-3.5h-1.586c-1.538 0-2.789-1.374-2.789-3.063V26.25a.875.875 0 011.75 0v2.188c0 .722.467 1.312 1.04 1.312h1.585v-3.5a.875.875 0 011.75 0v4.375z"/></g><defs><clipPath id="clip0_137_718"><path fill="#fff" d="M0 0h42v42H0z"/></clipPath></defs></svg>