<svg width="50" height="42" fill="none" xmlns="http://www.w3.org/2000/svg"><path d="M24.542 9.058a.812.812 0 01.916 0l1.209.8V7.25h-3.334v2.608l1.209-.8z" fill="#5A5A5A"/><path d="M44.8 31.15l-1.483-5.942-.817-13.933c0-.025-.008-.042-.008-.067a5.833 5.833 0 10-4.967.8l.192 3.159-3.75 3.75h-3.134V8.083A.833.833 0 0030 7.25h-1.667v4.167a.82.82 0 01-.441.733.814.814 0 01-.85-.042L25 10.75l-2.042 1.358a.803.803 0 01-.85.042.82.82 0 01-.441-.733V7.25H20a.833.833 0 00-.833.833v10.834h-3.134l-3.75-3.75.192-3.159a5.827 5.827 0 10-4.967-.8c0 .017-.008.042-.008.059l-.817 13.941L5.2 31.15.5 37.417a2.5 2.5 0 104 3l5-6.659c.2-.269.344-.575.425-.9l.508-2.033 2.067 2.367v5.725a2.5 2.5 0 105 0V32.25a2.567 2.567 0 00-.617-1.65l-5.158-5.892.175-2.858 1.333 1.333a2.477 2.477 0 001.767.734h5.833a2.5 2.5 0 100-5h8.334a2.5 2.5 0 000 5H35a2.48 2.48 0 001.767-.734L38.1 21.85l.175 2.858-5.175 5.909a2.563 2.563 0 00-.6 1.633v6.667a2.5 2.5 0 105 0v-5.725l2.067-2.367.508 2.025c.078.326.222.633.425.9l5 6.667a2.5 2.5 0 104-3l-4.7-6.267z" fill="#5A5A5A"/></svg>