<svg width="24" height="32" fill="none" xmlns="http://www.w3.org/2000/svg"><path d="M19.428 6.857c.113 0 .223.034.317.096l.826.55v-2.93h-2.286v2.932l.826-.55a.571.571 0 01.317-.097zM8 6.857A3.429 3.429 0 108 0a3.429 3.429 0 000 6.857z" fill="#B1BEDA"/><path d="M24 13.714V4.572h-2.286v4a.571.571 0 01-.888.475l-1.398-.933-1.397.932a.571.571 0 01-.888-.474v-4h-2.286v9.142H24zM.442 31.76a1.18 1.18 0 001.603-.202l4-5.143c.096-.125.165-.269.205-.422l.857-3.436-1.843-2.049-1.144 4.577a.56.56 0 01-.104.212L.24 30.155a1.143 1.143 0 00.203 1.604v.001z" fill="#B1BEDA"/><path d="M9.02 10.723a.929.929 0 00-.145-.213.584.584 0 01-.057-.098.5.5 0 01-.044-.073.553.553 0 01-.035-.178c0-.01-.006-.02-.006-.03v-.006l.184-2.218A4.571 4.571 0 016.63 7.79l-.286 3.451-.617 7.38-.011.138c-.026.316.08.628.292.863l4.7 5.22a.572.572 0 01.147.383v5.632a1.143 1.143 0 102.286 0v-6.286a1.13 1.13 0 00-.292-.764l-4.612-5.121-.041-.048a.571.571 0 01-.138-.422l.262-3.135-.778-1.021a.572.572 0 11.914-.689l.901 1.185 1.548 1.844a.53.53 0 01.074.114c.193.387.588.63 1.02.629h8a1.143 1.143 0 000-2.286h-6.943a.571.571 0 01-.42-.183L9.11 10.857a.606.606 0 01-.092-.134z" fill="#B1BEDA"/></svg>