<svg width="20" height="16" fill="none" xmlns="http://www.w3.org/2000/svg"><path fill-rule="evenodd" clip-rule="evenodd" d="M.804 4.353C.524 6.956.536 9.958.926 12.55a3.138 3.138 0 002.831 2.66l1.51.131c3.15.274 6.316.274 9.466 0l1.51-.131a3.138 3.138 0 002.831-2.66c.39-2.592.402-5.594.122-8.197a30.675 30.675 0 00-.122-.904A3.138 3.138 0 0016.243.79l-1.51-.13a54.647 54.647 0 00-9.465 0l-1.51.13A3.138 3.138 0 00.925 3.45a30.64 30.64 0 00-.122.904zm4.593-2.2a53.147 53.147 0 019.206 0l1.51.131a1.64 1.64 0 011.478 1.388l.034.234-5.561 3.09a4.25 4.25 0 01-4.128 0l-5.561-3.09.034-.234a1.638 1.638 0 011.478-1.388l1.51-.131zM17.808 5.52a29.099 29.099 0 01-.217 6.807 1.638 1.638 0 01-1.478 1.389l-1.51.131a53.152 53.152 0 01-9.206 0l-1.51-.131a1.638 1.638 0 01-1.478-1.389 29.1 29.1 0 01-.217-6.807l5.016 2.786a5.75 5.75 0 005.584 0l5.016-2.786z" fill="#000"/></svg>