<svg width="45" height="39" fill="none" xmlns="http://www.w3.org/2000/svg"><path d="M19.688 11.062V8.249H2.813A2.817 2.817 0 000 11.062v5.625h20.28c-.39-1.719-.593-3.57-.593-5.625zm25.197 11.25c-1.918 2.956-4.843 5.47-9.034 7.878a4.234 4.234 0 01-4.194.005c-4.19-2.413-7.115-4.93-9.036-7.883H0v14.062a2.815 2.815 0 002.813 2.813h39.374A2.814 2.814 0 0045 36.374V22.312h-.115zm-32.229 8.437H7.031a1.407 1.407 0 010-2.812h5.625a1.407 1.407 0 010 2.812z" fill="#014DF5"/><path d="M44.148 4.146L34.304-.073a1.411 1.411 0 00-1.11 0l-9.845 4.219c-.514.22-.849.728-.849 1.29v5.626c0 7.737 2.86 12.26 10.55 16.69a1.412 1.412 0 001.4 0C42.14 23.331 45 18.81 45 11.061V5.437a1.4 1.4 0 00-.852-1.291zm-5.08 6.39l-5.625 7.031c-.27.332-.675.526-1.1.526h-.058c-.447-.02-.86-.25-1.111-.624l-2.813-4.22a1.405 1.405 0 112.34-1.557l1.747 2.618 4.421-5.53a1.406 1.406 0 012.2 1.755z" fill="#014DF5"/></svg>