<svg width="59" height="59" fill="none" xmlns="http://www.w3.org/2000/svg"><path fill-rule="evenodd" clip-rule="evenodd" d="M29.5 58.314c15.913 0 28.814-12.9 28.814-28.814S45.414.686 29.5.686.686 13.586.686 29.5c0 15.913 12.9 28.814 28.814 28.814zm-4.288-21.136l13.893-8.021-13.893-8.02v16.04zm14.579-6.833l-13.893 8.021a1.372 1.372 0 01-2.058-1.188V21.136a1.372 1.372 0 012.058-1.188l13.893 8.02a1.372 1.372 0 010 2.377zM29.5 59C45.792 59 59 45.792 59 29.5S45.792 0 29.5 0 0 13.208 0 29.5 13.208 59 29.5 59z" fill="#E6EDFE"/></svg>