<svg width="18" height="18" fill="none" xmlns="http://www.w3.org/2000/svg"><path fill-rule="evenodd" clip-rule="evenodd" d="M4.345 1.017a42.252 42.252 0 019.31 0c1.713.191 3.095 1.54 3.296 3.26a40.66 40.66 0 010 9.445 3.734 3.734 0 01-3.296 3.26 42.123 42.123 0 01-9.31 0 3.734 3.734 0 01-3.296-3.26 40.653 40.653 0 010-9.445c.201-1.72 1.583-3.069 3.295-3.26zM9 4.007a.75.75 0 01.75.75V8.25h3.493a.75.75 0 010 1.5H9.75v3.492a.75.75 0 01-1.5 0V9.75H4.757a.75.75 0 110-1.5H8.25V4.757a.75.75 0 01.75-.75z" fill="#000"/></svg>