<svg width="19" height="22" fill="none" xmlns="http://www.w3.org/2000/svg"><path d="M18.009 18.209H15.84V9.538a2.167 2.167 0 00-2.168-2.168H4.28V3.757A2.89 2.89 0 001.39.867a.723.723 0 000 1.445 1.445 1.445 0 011.444 1.445v13.136a2.169 2.169 0 102.76 2.76H18.01a.723.723 0 100-1.444zm-7.226-9.394V11.8l-1.048-.722a.723.723 0 00-.795 0l-1.047.722V8.815h2.89zm-4.336 0v4.336a.722.722 0 00.383.635.721.721 0 00.723-.036l1.785-1.178 1.77 1.178a.723.723 0 001.12-.6V8.816h1.445a.723.723 0 01.723.723v8.67H5.595a2.168 2.168 0 00-1.315-1.314V8.814h2.167zm-2.89 10.839a.723.723 0 110-1.445.723.723 0 010 1.445z" fill="#5A5A5A"/></svg>