<svg width="18" height="20" fill="none" xmlns="http://www.w3.org/2000/svg"><path fill-rule="evenodd" clip-rule="evenodd" d="M11.25 3.5a3.25 3.25 0 11.833 2.173L9.366 7.155l-3.04 1.737a3.254 3.254 0 01.31 2.464l5.447 2.971a3.25 3.25 0 11-.719 1.317l-5.447-2.971a3.25 3.25 0 11-.652-4.902l3.37-1.926 2.729-1.489a3.254 3.254 0 01-.114-.856zm3.25-1.75a1.75 1.75 0 100 3.5 1.75 1.75 0 000-3.5zm-11 7a1.75 1.75 0 100 3.5 1.75 1.75 0 000-3.5zm9.25 7.75a1.75 1.75 0 113.5 0 1.75 1.75 0 01-3.5 0z" fill="#000"/></svg>