<svg width="50" height="36" fill="none" xmlns="http://www.w3.org/2000/svg"><path d="M22.414 30.5h17.241v-1.724H22.414V30.5zM5.556 23.748a.862.862 0 01.957 0l1.246.83V21.88H4.31v2.7l1.246-.83zm22.03-.144h-5.172v3.448h7.758v-.862a2.586 2.586 0 00-2.586-2.586zm12.069-2.587a5.15 5.15 0 014.31-5.091v-2.667a5.178 5.178 0 00-5.172-5.173h-6.896v6.897a.862.862 0 11-1.724 0V8.086h-6.897a5.178 5.178 0 00-5.172 5.173v2.662a5.337 5.337 0 014.31 5.283v.675h5.172a4.295 4.295 0 013.449 1.751 4.294 4.294 0 013.448-1.75h5.172v-.863zM25 14.121a.862.862 0 01-1.724 0v-.862a.862.862 0 011.724 0v.862zm13.793 0a.862.862 0 01-1.724 0v-.862a.862.862 0 011.724 0v.862zm.862 9.483h-5.172a2.586 2.586 0 00-2.586 2.586v.862h7.758v-3.448z" fill="#fff"/><path d="M25 33.948h-4.31V21.204a3.578 3.578 0 00-3.104-3.62 3.335 3.335 0 00-.345-.015 3.41 3.41 0 00-2.314.896 3.449 3.449 0 001.626 5.93c.401.083.69.436.69.846v8.707h-1.726v-8.052a5.123 5.123 0 01-1.724-1.045v9.097H12.07V21.88H9.483v4.31a.862.862 0 01-1.34.718L6.033 25.5l-2.107 1.405a.862.862 0 01-1.34-.715v-4.31H0v12.93c0 .476.386.862.862.862H25a.862.862 0 100-1.724zM18.103 21.88a.862.862 0 11-1.724 0v-.862a.862.862 0 011.724 0v.862zm31.035 12.068h-4.31v-8.707a.86.86 0 01.69-.845 3.448 3.448 0 00-.69-6.827h-.008a3.397 3.397 0 00-2.164.772 3.437 3.437 0 00-1.277 2.676v12.931h-4.31a.862.862 0 000 1.725h12.069a.862.862 0 000-1.725zM43.966 21.88v-.862a.862.862 0 111.724 0v.863a.862.862 0 11-1.724 0z" fill="#fff"/><path d="M2.035 8.948h3.137v9.483H2.586v1.724h6.897v-1.724H6.896V8.948h1.725v4.31a.862.862 0 001.724 0v-4.38a.852.852 0 00.538-.933L9.735 1.048a.862.862 0 00-.85-.72h-5.7a.862.862 0 00-.85.72l-1.15 6.897a.862.862 0 00.85 1.003z" fill="#fff"/></svg>