<svg width="50" height="44" fill="none" xmlns="http://www.w3.org/2000/svg"><path d="M20.69 18.552h-5.173v8.62h5.173v-8.62z" fill="#5A5A5A"/><path d="M20.69 16.828c.952 0 1.724.771 1.724 1.724v8.62h3.448V15.49l-7.759-5.372-7.758 5.372v11.683h3.448v-8.62c0-.953.772-1.724 1.724-1.724h5.173z" fill="#5A5A5A"/><path d="M18.103 8.207a.86.86 0 01.491.153l9.854 6.822v-2.213L18.103 5.807 7.76 12.969v2.213l9.854-6.822a.857.857 0 01.49-.153zm-2.586 29.31a4.31 4.31 0 10-8.62 0 4.31 4.31 0 008.62 0zm-4.31 2.586a2.586 2.586 0 110-5.172 2.586 2.586 0 010 5.172zm37.069-16.379a.862.862 0 00-.862-.862h-.862v1.724h1.724v-.862z" fill="#5A5A5A"/><path d="M11.207 38.38a.862.862 0 100-1.725.862.862 0 000 1.724zm5.443-3.449h16.11V13.379a2.586 2.586 0 012.586-2.586h8.62a.862.862 0 00.863-.862v-8.62a.862.862 0 00-.863-.863H4.31a.862.862 0 00-.862.862v30.173h7.759a6.035 6.035 0 015.444 3.448zM34.484 2.172h7.758a.862.862 0 010 1.725h-7.758a.862.862 0 010-1.725zm-4.31 0h.862a.862.862 0 010 1.725h-.863a.862.862 0 110-1.725zm-21.552 25v-10.49l-1.234.854a.862.862 0 01-1.353-.708v-4.31c0-.284.14-.549.372-.71L17.613 4.05a.862.862 0 01.981 0l11.207 7.759c.233.16.371.425.371.708v4.31a.862.862 0 01-1.352.71l-1.234-.854v10.49c0 .952-.772 1.724-1.724 1.724H10.345a1.724 1.724 0 01-1.724-1.725zM2.586 34.93h3.177a6.063 6.063 0 011.228-1.723H2.586a.862.862 0 100 1.724zm46.552-1.723H43.87a6.047 6.047 0 011.23 1.724h4.038a.862.862 0 100-1.724z" fill="#5A5A5A"/><path d="M35.345 12.517a.862.862 0 00-.862.862v7.759h8.286l-2.873-8.62h-4.551zm1.114 2.84l.862-.863a.862.862 0 011.22 1.219l-.863.862a.862.862 0 01-1.218-1.219zm3.806 2.942l-1.724 1.724a.862.862 0 01-1.22-1.219l1.725-1.724a.862.862 0 011.219 1.22zm4.563 4.563H34.483v11.563a6.034 6.034 0 015.172-2.942c.223 0 .446.013.668.038a.85.85 0 01.194-.038h7.759V26.31h-1.724a1.724 1.724 0 01-1.724-1.724v-1.724z" fill="#5A5A5A"/><path d="M43.965 37.517a4.31 4.31 0 10-8.62 0 4.31 4.31 0 008.62 0zm-4.31 2.586a2.586 2.586 0 110-5.172 2.586 2.586 0 010 5.172z" fill="#5A5A5A"/><path d="M39.655 38.38a.862.862 0 100-1.725.862.862 0 000 1.724zM1.724 43.552a.862.862 0 000-1.724H.862a.862.862 0 000 1.724h.862zm28.448 0a.862.862 0 000-1.724h-.862a.862.862 0 000 1.724h.862zM4.31 42.69c0 .476.386.862.862.862h6.035a.862.862 0 000-1.724H5.172a.862.862 0 00-.862.862zm28.449 0c0 .476.386.862.862.862h6.034a.862.862 0 000-1.724h-6.034a.862.862 0 00-.862.862z" fill="#5A5A5A"/></svg>