<svg width="20" height="14" fill="none" xmlns="http://www.w3.org/2000/svg"><g opacity=".7" fill="#5A5A5A"><path d="M18.547 6.19h-.949l-.956-1.906a1.52 1.52 0 00-1.375-.845h-2.221V1.375A1.375 1.375 0 0011.67 0H2.042A1.375 1.375 0 00.667 1.375v8.94a.688.688 0 00.687.689H2.73a2.063 2.063 0 104.126 0h6.19a2.063 2.063 0 004.126 0h2.063a.688.688 0 00.688-.688V7.565a1.375 1.375 0 00-1.375-1.376zm-13.754 5.5a.687.687 0 110-1.375.687.687 0 010 1.375zM6.32 9.628a2.063 2.063 0 00-3.054 0H2.042V1.375h9.628v8.253H6.32zm8.789 2.063a.687.687 0 110-1.374.687.687 0 010 1.374zm3.438-2.063h-1.911a2.064 2.064 0 00-3.054 0h-.536V4.814h2.235a.144.144 0 01.13.083l1.149 2.29a.688.688 0 00.612.378h1.375v2.063z"/><path d="M8.493 2.751H5.219a1.114 1.114 0 00-1.114 1.114V7.14A1.114 1.114 0 005.22 8.253h3.274a1.114 1.114 0 001.114-1.114V3.865a1.114 1.114 0 00-1.114-1.114zm-.261 4.126H5.48v-2.75h.687v.687a.688.688 0 001.376 0v-.688h.688v2.751z"/></g></svg>