<svg width="33" height="26" fill="none" xmlns="http://www.w3.org/2000/svg"><path fill-rule="evenodd" clip-rule="evenodd" d="M31.567 25.91s2.12 0 2.12-2.124c0-2.125-2.12-8.5-10.599-8.5s-10.599 6.375-10.599 8.5 2.12 2.125 2.12 2.125h16.958zm-16.911-2.124H31.52a.606.606 0 00.03-.005l.016-.004c-.004-.56-.354-2.189-1.61-3.655-1.17-1.375-3.227-2.711-6.869-2.711-3.64 0-5.696 1.338-6.868 2.711-1.257 1.466-1.609 3.096-1.61 3.655a1.9 1.9 0 00.046.009zm8.432-12.75a4.234 4.234 0 002.998-1.245 4.255 4.255 0 000-6.01 4.234 4.234 0 00-5.996 0 4.256 4.256 0 000 6.01 4.234 4.234 0 002.998 1.245zm6.36-4.25a6.388 6.388 0 01-1.863 4.508 6.359 6.359 0 01-4.497 1.867 6.346 6.346 0 01-4.497-1.867 6.377 6.377 0 01-1.862-4.508c0-1.691.67-3.312 1.863-4.508a6.352 6.352 0 018.993 0 6.383 6.383 0 011.863 4.508zM14.473 15.88a12.438 12.438 0 00-2.607-.525 15.255 15.255 0 00-1.496-.07c-8.48 0-10.6 6.375-10.6 8.5 0 1.417.706 2.125 2.12 2.125h8.937a4.766 4.766 0 01-.457-2.125c0-2.146.799-4.34 2.31-6.171a11.233 11.233 0 011.793-1.734zM10.2 17.41c-3.536.042-5.543 1.36-6.699 2.711-1.265 1.475-1.61 3.11-1.61 3.664H8.25c0-2.22.684-4.433 1.95-6.375zM2.95 7.848c0-1.69.67-3.312 1.863-4.508a6.351 6.351 0 018.993 0 6.383 6.383 0 010 9.016 6.352 6.352 0 01-8.993 0A6.383 6.383 0 012.95 7.848zm6.36-4.25a4.234 4.234 0 00-2.998 1.245 4.255 4.255 0 000 6.01 4.234 4.234 0 005.995 0 4.256 4.256 0 000-6.01A4.235 4.235 0 009.31 3.598z" fill="#fff"/></svg>