<svg width="24" height="24" fill="none" xmlns="http://www.w3.org/2000/svg"><path d="M6.333 1.333a1 1 0 10-2 0v2.422A4.5 4.5 0 00.503 7.62l-.115.87c-.02.148-.038.296-.056.443a.657.657 0 00.656.734h22.024a.657.657 0 00.656-.734 41.39 41.39 0 00-.056-.443l-.116-.87a4.5 4.5 0 00-3.83-3.865V1.333a1 1 0 10-2 0v2.224a63.882 63.882 0 00-11.333 0V1.333zM23.926 12.3a.658.658 0 00-.66-.633H.735a.658.658 0 00-.661.634 38.66 38.66 0 00.439 7.213 4.013 4.013 0 003.57 3.377l1.592.157c4.206.415 8.444.415 12.65 0l1.591-.157a4.013 4.013 0 003.571-3.377c.372-2.388.518-4.803.44-7.213z" fill="#B1BEDA"/></svg>