<svg width="16" height="17" fill="none" xmlns="http://www.w3.org/2000/svg"><path d="M15.444 7.017l-.852-1.284a.298.298 0 01-.058-.186V1.97A1.37 1.37 0 0013.163.6h-2.13a.583.583 0 00-.518.32L8.117 5.71 5.719.92A.583.583 0 005.2.6H3.071a1.37 1.37 0 00-1.37 1.37v3.6a.327.327 0 01-.059.192L.79 7.017a1.5 1.5 0 00-.256.863v8.47a.583.583 0 00.583.583h14a.583.583 0 00.583-.583V7.88a1.498 1.498 0 00-.256-.863zM13.367 1.97v3.6c-.005.306.085.608.257.862l.851 1.284c.04.054.06.12.059.186V9.35H12.2V1.767h.963a.204.204 0 01.204.204zm1.167 11.462H8.7v-2.916h5.834v2.916zM1.7 10.517h5.834v2.916H1.7v-2.916zm9.334-8.027v6.86H8.7V7.157l2.334-4.667zm-3.5 4.667V9.35H5.2V2.49l2.334 4.667zm-5.775.53l.851-1.254a1.5 1.5 0 00.257-.863v-3.6a.204.204 0 01.204-.203h.963V9.35H1.7V7.88a.327.327 0 01.059-.192zM1.7 14.6h5.834v1.167H1.7V14.6zm7 1.167V14.6h5.834v1.167H8.7z" fill="#000"/></svg>