<svg width="82" height="84" fill="none" xmlns="http://www.w3.org/2000/svg"><mask id="mask0_1379_22327" style="mask-type:alpha" maskUnits="userSpaceOnUse" x="10" y="9" width="62" height="65"><path fill-rule="evenodd" clip-rule="evenodd" d="M55.274 34.794c-3.961-8.54-13.705-12.433-21.762-8.696-8.057 3.738-11.377 13.69-7.416 22.23 3.962 8.54 13.705 12.434 21.762 8.696 8.057-3.737 11.378-13.69 7.416-22.23zm12.686-5.885C60.554 12.943 42.339 5.664 27.275 12.652 12.21 19.639 6.004 38.247 13.41 54.213c7.406 15.966 25.622 23.245 40.685 16.258C69.16 63.483 75.366 44.875 67.96 28.909z" fill="url(#paint0_linear_1379_22327)"/></mask><g mask="url(#mask0_1379_22327)"><path fill-rule="evenodd" clip-rule="evenodd" d="M55.274 34.794c-3.961-8.54-13.705-12.433-21.762-8.696-8.057 3.738-11.377 13.69-7.416 22.23 3.962 8.54 13.705 12.434 21.762 8.696 8.057-3.737 11.378-13.69 7.416-22.23zm12.686-5.885C60.554 12.943 42.339 5.664 27.275 12.652 12.21 19.639 6.004 38.247 13.41 54.213c7.406 15.966 25.622 23.245 40.685 16.258C69.16 63.483 75.366 44.875 67.96 28.909z" fill="url(#paint1_linear_1379_22327)"/><g filter="url(#filter0_f_1379_22327)"><ellipse cx="33.498" cy="52.82" rx="10.45" ry="9.859" transform="rotate(-114.885 33.498 52.82)" fill="#00FF75" fill-opacity=".7"/></g><g filter="url(#filter1_f_1379_22327)"><ellipse cx="27.559" cy="71.588" rx="10.45" ry="9.859" transform="rotate(-114.885 27.559 71.588)" fill="#fff" fill-opacity=".6"/></g><g filter="url(#filter2_f_1379_22327)"><ellipse cx="48.754" cy="30.875" rx="10.45" ry="9.859" transform="rotate(-114.885 48.754 30.875)" fill="#BDB7D7" fill-opacity=".7"/></g></g><g filter="url(#filter3_f_1379_22327)"><ellipse cx="40.685" cy="41.563" rx="25.198" ry="23.773" transform="rotate(-114.885 40.685 41.563)" stroke="#C8E5FF" stroke-opacity=".7" stroke-width="7.833"/></g><defs><filter id="filter0_f_1379_22327" x="-18.247" y=".694" width="103.489" height="104.253" filterUnits="userSpaceOnUse" color-interpolation-filters="sRGB"><feFlood flood-opacity="0" result="BackgroundImageFix"/><feBlend in="SourceGraphic" in2="BackgroundImageFix" result="shape"/><feGaussianBlur stdDeviation="20.888" result="effect1_foregroundBlur_1379_22327"/></filter><filter id="filter1_f_1379_22327" x="-24.186" y="19.461" width="103.489" height="104.253" filterUnits="userSpaceOnUse" color-interpolation-filters="sRGB"><feFlood flood-opacity="0" result="BackgroundImageFix"/><feBlend in="SourceGraphic" in2="BackgroundImageFix" result="shape"/><feGaussianBlur stdDeviation="20.888" result="effect1_foregroundBlur_1379_22327"/></filter><filter id="filter2_f_1379_22327" x="-2.991" y="-21.252" width="103.489" height="104.253" filterUnits="userSpaceOnUse" color-interpolation-filters="sRGB"><feFlood flood-opacity="0" result="BackgroundImageFix"/><feBlend in="SourceGraphic" in2="BackgroundImageFix" result="shape"/><feGaussianBlur stdDeviation="20.888" result="effect1_foregroundBlur_1379_22327"/></filter><filter id="filter3_f_1379_22327" x="4.905" y="4.847" width="71.561" height="73.433" filterUnits="userSpaceOnUse" color-interpolation-filters="sRGB"><feFlood flood-opacity="0" result="BackgroundImageFix"/><feBlend in="SourceGraphic" in2="BackgroundImageFix" result="shape"/><feGaussianBlur stdDeviation="3.917" result="effect1_foregroundBlur_1379_22327"/></filter><linearGradient id="paint0_linear_1379_22327" x1="11.595" y1="31.69" x2="70.018" y2="49.047" gradientUnits="userSpaceOnUse"><stop stop-color="#DA50A1"/><stop offset=".512" stop-color="#4D39E7"/><stop offset="1" stop-color="#64D0CE"/></linearGradient><linearGradient id="paint1_linear_1379_22327" x1="11.595" y1="31.69" x2="70.018" y2="49.047" gradientUnits="userSpaceOnUse"><stop stop-color="#41C9F3"/><stop offset=".501" stop-color="#484FEE"/><stop offset="1" stop-color="#00FFF0"/></linearGradient></defs></svg>