<svg width="21" height="18" fill="none" xmlns="http://www.w3.org/2000/svg"><path fill-rule="evenodd" clip-rule="evenodd" d="M17.483 16.79v-.002l.018-.043L20.5 1.625v-.048c0-.377-.14-.706-.442-.903-.265-.173-.57-.185-.784-.169a2.681 2.681 0 00-.586.12 3.233 3.233 0 00-.24.088l-.013.005-16.72 6.56H1.71a1.774 1.774 0 00-.149.062 2.24 2.24 0 00-.341.191c-.215.147-.624.495-.555 1.048.057.457.372.748.585.898a2.068 2.068 0 00.435.234l.01.004.007.002 2.926.985c-.01.184.008.37.057.555l1.465 5.559a1.5 1.5 0 002.834.196l2.288-2.446 3.929 3.012.056.024c.357.156.69.206.995.164.305-.042.547-.17.729-.315a1.742 1.742 0 00.49-.634l.008-.018.003-.006.001-.003zM6.135 10.875a.3.3 0 01.13-.33l9.921-6.3s.584-.355.563 0c0 0 .104.062-.209.354-.296.277-7.071 6.818-7.757 7.48a.278.278 0 00-.077.135L7.6 16.434l-1.465-5.559z" fill="#000"/></svg>