<svg width="20" height="20" fill="none" xmlns="http://www.w3.org/2000/svg"><path fill-rule="evenodd" clip-rule="evenodd" d="M.184 19.331a.4.4 0 00.487.494l4.607-1.204a10 10 0 004.76 1.207h.004c5.486 0 9.958-4.446 9.958-9.912a9.828 9.828 0 00-2.914-7.011A9.917 9.917 0 0010.042 0C4.556 0 .084 4.446.084 9.911c0 1.739.458 3.447 1.33 4.954L.185 19.33zM6.886 5.17c.183.005.386.015.579.443.128.285.343.81.519 1.238.137.333.249.607.277.663.064.128.104.275.02.448l-.028.058c-.068.14-.116.24-.23.37a8.987 8.987 0 00-.143.17c-.085.104-.17.206-.242.278-.129.128-.262.266-.114.522.149.256.668 1.098 1.435 1.777a6.634 6.634 0 001.903 1.2c.07.03.127.055.17.076.257.128.41.108.558-.064.149-.173.643-.749.817-1.005.168-.256.34-.216.578-.128.238.089 1.504.71 1.761.837l.143.07c.179.085.3.144.352.23.064.109.064.62-.148 1.222-.218.6-1.267 1.176-1.742 1.22l-.135.016c-.436.053-.988.12-2.956-.655-2.426-.954-4.027-3.32-4.35-3.799a2.76 2.76 0 00-.053-.076l-.005-.008c-.148-.197-1.049-1.402-1.049-2.646 0-1.19.587-1.81.854-2.092a6.7 6.7 0 00.047-.05.95.95 0 01.687-.32c.173 0 .347 0 .495.005z" fill="#000"/></svg>