<svg width="22" height="16" fill="none" xmlns="http://www.w3.org/2000/svg"><path fill-rule="evenodd" clip-rule="evenodd" d="M9.386 4.357A.75.75 0 008.25 5v6a.75.75 0 001.136.643l5-3a.75.75 0 000-1.286l-5-3zM12.542 8L9.75 9.675v-3.35L12.542 8z" fill="#5A5A5A"/><path fill-rule="evenodd" clip-rule="evenodd" d="M16.03.641a64.498 64.498 0 00-10.06 0L3.728.817a2.975 2.975 0 00-2.703 2.475 28.566 28.566 0 000 9.416 2.975 2.975 0 002.703 2.475l2.24.176c3.349.262 6.713.262 10.062 0l2.24-.176a2.975 2.975 0 002.703-2.475c.52-3.117.52-6.299 0-9.416A2.975 2.975 0 0018.27.817L16.031.64zM6.087 2.137a62.998 62.998 0 019.828 0l2.24.175c.676.053 1.229.56 1.34 1.228a27.066 27.066 0 010 8.92 1.475 1.475 0 01-1.34 1.228l-2.24.175a62.98 62.98 0 01-9.828 0l-2.24-.175a1.475 1.475 0 01-1.34-1.228 27.066 27.066 0 010-8.92 1.475 1.475 0 011.34-1.228l2.24-.175z" fill="#5A5A5A"/></svg>