<svg width="165" height="30" fill="none" xmlns="http://www.w3.org/2000/svg"><path fill-rule="evenodd" clip-rule="evenodd" d="M69.173 11.884a7.983 7.983 0 00-3.037-3.073c-1.283-.736-2.714-1.103-4.293-1.102-1.579.002-3.01.369-4.293 1.102a7.987 7.987 0 00-3.038 3.075c-.741 1.315-1.112 2.802-1.112 4.46 0 1.657.371 3.148 1.112 4.471.742 1.325 1.754 2.353 3.038 3.086 1.284.734 2.715 1.101 4.293 1.101 1.579 0 3.01-.367 4.293-1.101 1.283-.734 2.295-1.762 3.037-3.085.741-1.324 1.112-2.815 1.112-4.473 0-1.659-.372-3.146-1.112-4.46zm-11.695 1.53c.423-.836 1.009-1.478 1.758-1.924.75-.447 1.619-.67 2.607-.67.989 0 1.858.223 2.607.67.75.446 1.336 1.088 1.758 1.925.423.837.634 1.814.634 2.93s-.211 2.092-.634 2.93c-.422.837-1.008 1.48-1.758 1.925-.75.447-1.618.67-2.607.67-.988 0-1.858-.223-2.607-.67-.75-.446-1.335-1.088-1.758-1.925-.422-.837-.634-1.814-.634-2.93s.212-2.093.634-2.93zM47.05 23.773c1.332-.709 2.348-1.701 3.05-2.977.702-1.276 1.053-2.75 1.053-4.424 0-1.69-.35-3.17-1.052-4.436-.701-1.267-1.718-2.247-3.05-2.942-1.331-.694-2.914-1.042-4.748-1.042H36.3v16.885h6.003c1.834-.001 3.416-.356 4.747-1.064zm.682-7.4c0 1.722-.499 3.061-1.495 4.018-.996.956-2.404 1.434-4.222 1.435h-2.344v-10.93h2.344c1.818-.001 3.226.477 4.222 1.434.997.957 1.495 2.305 1.495 4.042zm43.53-8.23v16.695h-3.349V13.19l-4.281 11.648h-2.917l-4.282-11.6v11.6H73.06V8.142h4.09L82.22 20.7l4.976-12.557h4.066zm6.673 16.695V7.951h-3.373v16.886h3.373zm17.603 0h-3.372l-7.558-11.48v11.48h-3.373V7.951h3.373l7.558 11.575V7.951h3.372v16.886zm6.817-3.396h6.769l1.171 3.396h3.564l-6.195-16.695h-3.85l-6.219 16.695h3.564l1.196-3.396zm3.372-9.687l2.488 7.127h-4.975l2.487-7.127zm24.492 13.083h-3.373l-7.558-11.48v11.48h-3.372V7.951h3.372l7.558 11.575V7.951h3.373v16.886zM165 10.63V7.951h-12.676v2.679h4.639v14.207h3.373V10.63H165z" fill="url(#paint0_linear_562_4123)"/><path fill-rule="evenodd" clip-rule="evenodd" d="M29.442 7.277H7.29L0 0h22.164a7.277 7.277 0 017.277 7.277zm0 3.779v7.277H18.366l-7.29-7.277H29.44zm0 18.333v-7.277h-7.29l7.29 7.277z" fill="url(#paint1_linear_562_4123)"/><path fill-rule="evenodd" clip-rule="evenodd" d="M29.442 7.277H7.29L0 0h22.164a7.277 7.277 0 017.277 7.277zm0 3.779v7.277H18.366l-7.29-7.277H29.44zm0 18.333v-7.277h-7.29l7.29 7.277z" fill="url(#paint2_linear_562_4123)"/><defs><linearGradient id="paint0_linear_562_4123" x1="100.65" y1="7.709" x2="100.65" y2="25.004" gradientUnits="userSpaceOnUse"><stop stop-color="#2644D0"/><stop offset="1" stop-color="#2E3AB0"/></linearGradient><linearGradient id="paint1_linear_562_4123" x1="14.721" y1="0" x2="14.721" y2="29.389" gradientUnits="userSpaceOnUse"><stop stop-color="#2249DE"/><stop offset=".461" stop-color="#3037A5"/><stop offset="1" stop-color="#3037A5"/></linearGradient><linearGradient id="paint2_linear_562_4123" x1="14.721" y1="0" x2="14.721" y2="29.389" gradientUnits="userSpaceOnUse"><stop stop-color="#2249DE"/><stop offset="1" stop-color="#3037A5"/></linearGradient></defs></svg>