<svg width="345" height="102" fill="none" xmlns="http://www.w3.org/2000/svg"><path d="M1 30.436S39.96-1.21 115.716 1.123c53.145 1.637 71.552 45.642 124.727 46.26 42.372.49 69.042-6.523 103.624-27.253" stroke="url(#paint0_linear_542_3939)" stroke-width=".939"/><path d="M1 47.505S39.96 15.86 115.716 18.192c53.145 1.637 71.552 45.643 124.727 46.26 42.372.491 69.042-6.523 103.624-27.252" stroke="url(#paint1_linear_542_3939)" stroke-width=".939"/><path d="M1 65.368s38.96-31.646 114.716-29.313c53.145 1.637 71.552 45.643 124.727 46.26 42.372.49 69.042-6.523 103.624-27.252" stroke="url(#paint2_linear_542_3939)" stroke-width=".939"/><path d="M1 84.146S39.96 52.5 115.716 54.833c53.145 1.637 71.552 45.643 124.727 46.26 42.372.491 69.042-6.523 103.624-27.252" stroke="url(#paint3_linear_542_3939)" stroke-width=".939"/><defs><linearGradient id="paint0_linear_542_3939" x1="8.576" y1="24.024" x2="380.592" y2="24.024" gradientUnits="userSpaceOnUse"><stop offset=".493" stop-color="#DBE3F4"/><stop offset="1" stop-color="#fff" stop-opacity="0"/></linearGradient><linearGradient id="paint1_linear_542_3939" x1="8.576" y1="41.093" x2="380.592" y2="41.093" gradientUnits="userSpaceOnUse"><stop offset=".493" stop-color="#DBE3F4"/><stop offset="1" stop-color="#fff" stop-opacity="0"/></linearGradient><linearGradient id="paint2_linear_542_3939" x1="8.576" y1="58.956" x2="380.592" y2="58.956" gradientUnits="userSpaceOnUse"><stop offset=".493" stop-color="#DBE3F4"/><stop offset="1" stop-color="#fff" stop-opacity="0"/></linearGradient><linearGradient id="paint3_linear_542_3939" x1="8.576" y1="77.734" x2="380.592" y2="77.734" gradientUnits="userSpaceOnUse"><stop offset=".493" stop-color="#DBE3F4"/><stop offset="1" stop-color="#fff" stop-opacity="0"/></linearGradient></defs></svg>